<svg width="3339" height="3339" xmlns="http://www.w3.org/2000/svg" xmlns:xlink="http://www.w3.org/1999/xlink" overflow="hidden"><defs><clipPath id="clip0"><rect x="279" y="279" width="3339" height="3339"/></clipPath><radialGradient cx="2.42818e+06" cy="2.24859e+06" r="3.30941e+06" fy="2.24859e+06" gradientUnits="userSpaceOnUse" spreadMethod="pad" id="fill1" gradientTransform="matrix(0.000254459 -0.000255918 0.000255918 0.000254459 526.592 1961.32)"><stop offset="0" stop-color="#3B3838" stop-opacity="0.25098"/><stop offset="0.39" stop-color="#3B3838" stop-opacity="0.25098"/><stop offset="0.65" stop-color="#181717" stop-opacity="0"/><stop offset="1" stop-color="#000000" stop-opacity="0"/></radialGradient><radialGradient cx="826319" cy="898836" r="1.22095e+06" fx="826319" gradientUnits="userSpaceOnUse" spreadMethod="pad" id="fill2" gradientTransform="matrix(-0.000243262 -0.000266584 0.000266584 -0.000243262 1290.05 1999.11)"><stop offset="0" stop-color="#3B3838" stop-opacity="0.2"/><stop offset="0.55" stop-color="#181717" stop-opacity="0"/><stop offset="1" stop-color="#000000" stop-opacity="0"/></radialGradient><radialGradient cx="1.55309e+06" cy="1.55309e+06" r="2.19641e+06" gradientUnits="userSpaceOnUse" spreadMethod="pad" id="fill3" gradientTransform="matrix(0.000360892 0 0 0.000360892 1906 1635)"><stop offset="0" stop-color="#767171" stop-opacity="0.25098"/><stop offset="0.26" stop-color="#767171" stop-opacity="0.25098"/><stop offset="0.6" stop-color="#181717" stop-opacity="0"/><stop offset="1" stop-color="#0D0D0D" stop-opacity="0"/></radialGradient><radialGradient cx="934907" cy="936443" r="1.32313e+06" fx="934907" fy="936443" gradientUnits="userSpaceOnUse" spreadMethod="pad" id="fill4" gradientTransform="matrix(0.000247146 -0.000262987 0.000262987 0.000247146 1242.27 1899.34)"><stop offset="0" stop-color="#000000" stop-opacity="0"/><stop offset="0.56" stop-color="#000000" stop-opacity="0"/><stop offset="1" stop-color="#3B3838" stop-opacity="0.2"/></radialGradient><radialGradient cx="911629" cy="911629" r="1.28924e+06" fx="911629" fy="911629" gradientUnits="userSpaceOnUse" spreadMethod="pad" id="fill5" gradientTransform="matrix(0.000360892 0 0 0.000360892 1391 1650)"><stop offset="0" stop-color="#000000" stop-opacity="0.14902"/><stop offset="0.45" stop-color="#181717" stop-opacity="0"/><stop offset="1" stop-color="#181717" stop-opacity="0"/></radialGradient><radialGradient cx="826319" cy="898836" r="1.22095e+06" fx="826319" gradientUnits="userSpaceOnUse" spreadMethod="pad" id="fill6" gradientTransform="scale(0.000360892 0.000360892)"><stop offset="0" stop-color="#3B3838" stop-opacity="0.2"/><stop offset="0.55" stop-color="#181717" stop-opacity="0"/><stop offset="1" stop-color="#000000" stop-opacity="0"/></radialGradient><linearGradient x1="1199.55" y1="-84.4902" x2="98.4453" y2="1198.49" gradientUnits="userSpaceOnUse" spreadMethod="reflect" id="fill7"><stop offset="0" stop-color="#39586B"/><stop offset="0.34" stop-color="#C8A700"/><stop offset="0.59" stop-color="#D56D2A"/><stop offset="1" stop-color="#FF5B6F"/></linearGradient><radialGradient cx="1.03216e+06" cy="1.04602e+06" r="1.46953e+06" fx="1.03216e+06" fy="1.04602e+06" gradientUnits="userSpaceOnUse" spreadMethod="pad" id="fill8" gradientTransform="matrix(0.000360892 0 0 0.000360892 2011 1754)"><stop offset="0" stop-color="#000000" stop-opacity="0.14902"/><stop offset="0.5" stop-color="#97151E" stop-opacity="0.14902"/><stop offset="0.69" stop-color="#FB6F62" stop-opacity="0"/><stop offset="1" stop-color="#FB6F62" stop-opacity="0"/></radialGradient><radialGradient cx="458586" cy="458586" r="648538" fx="458586" fy="458586" gradientUnits="userSpaceOnUse" spreadMethod="pad" id="fill9" gradientTransform="matrix(0.000360892 0 0 0.000360892 2301 2037)"><stop offset="0" stop-color="#000000" stop-opacity="0"/><stop offset="0.43" stop-color="#181717" stop-opacity="0"/><stop offset="0.77" stop-color="#000000" stop-opacity="0.239216"/><stop offset="1" stop-color="#000000" stop-opacity="0.239216"/></radialGradient><radialGradient cx="83127.5" cy="83127" r="117560" gradientUnits="userSpaceOnUse" spreadMethod="pad" id="fill10" gradientTransform="matrix(0.000360892 0 0 0.000360892 2437 2169)"><stop offset="0" stop-color="#767171" stop-opacity="0.25098"/><stop offset="0.08" stop-color="#767171" stop-opacity="0.25098"/><stop offset="0.64" stop-color="#181717" stop-opacity="0"/><stop offset="1" stop-color="#000000" stop-opacity="0"/></radialGradient><linearGradient x1="2805.5" y1="1858.5" x2="2129.5" y2="2534.5" gradientUnits="userSpaceOnUse" spreadMethod="reflect" id="fill11"><stop offset="0" stop-color="#5E6B78"/><stop offset="0.49" stop-color="#974762"/><stop offset="1" stop-color="#FF475D"/></linearGradient></defs><g clip-path="url(#clip0)" transform="translate(-279 -279)"><path d="M2338.73 1291.59C2655.83 1608 2636.17 2142.09 2294.8 2484.83 1953.35 2827.64 1419.27 2849.29 1101.73 2533.18 784.226 2217.12 803.355 1682.97 1144.47 1339.91L1419.28 1613.15 1419.28 1708.78 1431.66 1708.78 1427.79 1713.96C1389.79 1770.21 1367.6 1838.02 1367.6 1911.01 1367.6 2105.66 1525.39 2263.46 1720.04 2263.46 1914.7 2263.46 2072.49 2105.66 2072.49 1911.01 2072.49 1856.27 2060.01 1804.44 2037.74 1758.21L2020.3 1727.87 2060.59 1692.75 2003.71 1627.52Z" fill="url(#fill1)" fill-rule="evenodd"/><path d="M1345.71 1244.5C1421.54 1243.93 1497.58 1272.07 1556.16 1329.05 1673.32 1443.02 1677.08 1630 1564.59 1748.58L1452.53 1642.28 1356.43 1830.98 1332.54 1818.82 1332.54 1885.04 1185.96 1885.04 1185.96 1744.17 1115.27 1708.17 1242.27 1458.79 1294.97 1489.53 1136.56 1332.2C1194.27 1274.35 1269.89 1245.07 1345.71 1244.5Z" fill="url(#fill2)" fill-rule="evenodd"/><path d="M2466.5 1962.12C2337.61 1962.12 2233.12 2066.61 2233.12 2195.5 2233.12 2324.39 2337.61 2428.88 2466.5 2428.88 2595.39 2428.88 2699.88 2324.39 2699.88 2195.5 2699.88 2066.61 2595.39 1962.12 2466.5 1962.12ZM2466.5 1635C2776.06 1635 3027 1885.94 3027 2195.5 3027 2505.06 2776.06 2756 2466.5 2756 2156.94 2756 1906 2505.06 1906 2195.5 1906 1885.94 2156.94 1635 2466.5 1635Z" fill="url(#fill3)" fill-rule="evenodd"/><path d="M1969.58 1656.79C2095.34 1794.67 2085.52 2008.4 1947.64 2134.16 1809.75 2259.93 1596.03 2250.1 1470.26 2112.22 1353.12 1983.79 1352.53 1787.43 1468.9 1658.3L1719.92 1884.51Z" fill="url(#fill4)" fill-rule="evenodd"/><path d="M1391 1979C1391 1797.3 1538.3 1650 1720 1650 1901.7 1650 2049 1797.3 2049 1979 2049 2160.7 1901.7 2308 1720 2308 1538.3 2308 1391 2160.7 1391 1979Z" fill="url(#fill5)" fill-rule="evenodd"/><path d="M519.895 549.769C469.204 606.164 397.16 643.367 315.583 648.228 152.428 657.95 11.7756 534.692 0 371.672L152.724 359.322 79.4485 162.358 104.533 152.914 55.616 108.276 154.42 0 258.479 94.9557 332.72 67.0049 431.325 328.914 373.097 347.122 596.09 336.153C599.924 417.785 570.586 493.373 519.895 549.769Z" fill="url(#fill6)" fill-rule="evenodd" transform="matrix(0.674057 -0.738679 -0.738679 -0.674057 2145.79 1999.11)"/><path d="M649 315.265C563.175 315.265 493.601 384.817 493.601 470.613 493.601 556.41 563.175 625.962 649 625.962 734.823 625.962 804.398 556.41 804.398 470.613 804.398 384.817 734.823 315.265 649 315.265ZM263.299 0C209.659 0 162.367 27.1688 134.44 68.492L126.782 82.5971 90.52 134.811C-19.8521 321.097-30.8955 552.734 66.2289 750.851 163.354 948.967 353.251 1082.16 568.149 1109.09L636.444 1112.68 636.419 1114 649.004 1113.34 661.581 1114 661.555 1112.68 729.851 1109.09C944.749 1082.16 1134.65 948.967 1231.77 750.851 1328.9 552.735 1317.85 321.097 1207.48 134.811L1171.22 82.5975 1163.56 68.4925C1135.63 27.1692 1088.34 0.000479471 1034.7 0.000479471 948.877 0.000479471 879.303 69.5526 879.303 155.349 879.303 187.523 889.087 217.412 905.842 242.206L913.771 251.813 912.694 252.681C995.368 355.131 1011.18 496.188 953.23 614.387 902.528 717.811 803.393 787.343 691.208 801.4L649.004 803.619 606.792 801.399C494.607 787.342 395.472 717.811 344.77 614.386 286.824 496.187 302.632 355.131 385.306 252.68L384.229 251.812 392.158 242.206C408.913 217.412 418.697 187.523 418.697 155.349 418.697 69.5521 349.123 0 263.299 0Z" stroke="#DA7C42" stroke-width="8.02083" stroke-miterlimit="8" stroke-opacity="0.101961" fill="url(#fill7)" fill-rule="evenodd" transform="matrix(-1 0 0 1 2369 1420)"/><path d="M2464.4 2435.44 2613.25 2435.44 2613.25 2509 2464.4 2509ZM2676.94 2191.02 2756 2191.02 2756 2293.56 2728.39 2293.56 2728.39 2342.17 2664.59 2342.17 2664.59 2237.45 2676.94 2237.45ZM2354.56 1754 2360.27 1778.94C2381.89 1909.79 2363.46 2046.8 2302.81 2170.71 2254.28 2269.84 2182.59 2352.72 2096.18 2414.2L2074.58 2427.65 2066.03 2413.57C2030.94 2348.89 2011 2274.76 2011 2195.97 2011 1991.11 2145.77 1817.77 2331.39 1759.96Z" fill="url(#fill8)" fill-rule="evenodd"/><path d="M2301 2202.5C2301 2111.1 2375.1 2037 2466.5 2037 2557.9 2037 2632 2111.1 2632 2202.5 2632 2293.9 2557.9 2368 2466.5 2368 2375.1 2368 2301 2293.9 2301 2202.5Z" fill="url(#fill9)" fill-rule="evenodd"/><path d="M2437 2199C2437 2182.43 2450.43 2169 2467 2169 2483.57 2169 2497 2182.43 2497 2199 2497 2215.57 2483.57 2229 2467 2229 2450.43 2229 2437 2215.57 2437 2199Z" fill="url(#fill10)" fill-rule="evenodd"/><path d="M2467.5 2185.54C2473.56 2185.54 2478.46 2190.45 2478.46 2196.5 2478.46 2202.56 2473.56 2207.46 2467.5 2207.46 2461.45 2207.46 2456.54 2202.56 2456.54 2196.5 2456.54 2190.45 2461.45 2185.54 2467.5 2185.54ZM2467.5 2041.11C2381.68 2041.11 2312.11 2110.68 2312.11 2196.5 2312.11 2282.32 2381.68 2351.89 2467.5 2351.89 2553.32 2351.89 2622.89 2282.32 2622.89 2196.5 2622.89 2110.68 2553.32 2041.11 2467.5 2041.11ZM2467.5 1858.5C2654.17 1858.5 2805.5 2009.83 2805.5 2196.5 2805.5 2383.17 2654.17 2534.5 2467.5 2534.5 2280.83 2534.5 2129.5 2383.17 2129.5 2196.5 2129.5 2009.83 2280.83 1858.5 2467.5 1858.5Z" stroke="#974762" stroke-width="9.16667" stroke-miterlimit="8" stroke-opacity="0.101961" fill="url(#fill11)" fill-rule="evenodd"/></g></svg>