<svg width="108" height="108" xmlns="http://www.w3.org/2000/svg" xmlns:xlink="http://www.w3.org/1999/xlink" overflow="hidden"><defs><clipPath id="clip0"><rect x="696" y="598" width="108" height="108"/></clipPath><radialGradient cx="2.42818e+06" cy="2.24859e+06" r="3.30941e+06" gradientUnits="userSpaceOnUse" spreadMethod="pad" id="fill1" gradientTransform="matrix(8.23048e-06 -8.27767e-06 8.27767e-06 8.23048e-06 704.008 652.415)"><stop offset="0" stop-color="#3B3838" stop-opacity="0.25098"/><stop offset="0.39" stop-color="#3B3838" stop-opacity="0.25098"/><stop offset="0.65" stop-color="#181717" stop-opacity="0"/><stop offset="1" stop-color="#000000" stop-opacity="0"/></radialGradient><radialGradient cx="826319" cy="898836" r="1.22095e+06" gradientUnits="userSpaceOnUse" spreadMethod="pad" id="fill2" gradientTransform="matrix(-7.86831e-06 -8.62266e-06 8.62266e-06 -7.86831e-06 728.702 653.637)"><stop offset="0" stop-color="#3B3838" stop-opacity="0.2"/><stop offset="0.55" stop-color="#181717" stop-opacity="0"/><stop offset="1" stop-color="#000000" stop-opacity="0"/></radialGradient><radialGradient cx="1.55309e+06" cy="1.55309e+06" r="2.19641e+06" gradientUnits="userSpaceOnUse" spreadMethod="pad" id="fill3" gradientTransform="matrix(1.16731e-05 0 0 1.16731e-05 748.625 641.86)"><stop offset="0" stop-color="#767171" stop-opacity="0.25098"/><stop offset="0.26" stop-color="#767171" stop-opacity="0.25098"/><stop offset="0.6" stop-color="#181717" stop-opacity="0"/><stop offset="1" stop-color="#0D0D0D" stop-opacity="0"/></radialGradient><radialGradient cx="934907" cy="936443" r="1.32313e+06" gradientUnits="userSpaceOnUse" spreadMethod="pad" id="fill4" gradientTransform="matrix(7.99394e-06 -8.50632e-06 8.50632e-06 7.99394e-06 727.157 650.41)"><stop offset="0" stop-color="#000000" stop-opacity="0"/><stop offset="0.56" stop-color="#000000" stop-opacity="0"/><stop offset="1" stop-color="#3B3838" stop-opacity="0.2"/></radialGradient><radialGradient cx="911629" cy="911629" r="1.28924e+06" gradientUnits="userSpaceOnUse" spreadMethod="pad" id="fill5" gradientTransform="matrix(1.16731e-05 0 0 1.16731e-05 731.968 642.345)"><stop offset="0" stop-color="#000000" stop-opacity="0.14902"/><stop offset="0.45" stop-color="#181717" stop-opacity="0"/><stop offset="1" stop-color="#181717" stop-opacity="0"/></radialGradient><radialGradient cx="826319" cy="898836" r="1.22095e+06" gradientUnits="userSpaceOnUse" spreadMethod="pad" id="fill6" gradientTransform="scale(1.16731e-05 1.16731e-05)"><stop offset="0" stop-color="#3B3838" stop-opacity="0.2"/><stop offset="0.55" stop-color="#181717" stop-opacity="0"/><stop offset="1" stop-color="#000000" stop-opacity="0"/></radialGradient><linearGradient x1="38.7995" y1="-2.73283" x2="3.18421" y2="38.7652" gradientUnits="userSpaceOnUse" spreadMethod="reflect" id="fill7"><stop offset="0" stop-color="#39586B"/><stop offset="0.34" stop-color="#C8A700"/><stop offset="0.59" stop-color="#D56D2A"/><stop offset="1" stop-color="#FF5B6F"/></linearGradient><radialGradient cx="1.03216e+06" cy="1.04602e+06" r="1.46953e+06" gradientUnits="userSpaceOnUse" spreadMethod="pad" id="fill8" gradientTransform="matrix(1.16731e-05 0 0 1.16731e-05 752.022 645.709)"><stop offset="0" stop-color="#000000" stop-opacity="0.14902"/><stop offset="0.5" stop-color="#97151E" stop-opacity="0.14902"/><stop offset="0.69" stop-color="#FB6F62" stop-opacity="0"/><stop offset="1" stop-color="#FB6F62" stop-opacity="0"/></radialGradient><radialGradient cx="458586" cy="458586" r="648538" gradientUnits="userSpaceOnUse" spreadMethod="pad" id="fill9" gradientTransform="matrix(1.16731e-05 0 0 1.16731e-05 761.402 654.863)"><stop offset="0" stop-color="#000000" stop-opacity="0"/><stop offset="0.43" stop-color="#181717" stop-opacity="0"/><stop offset="0.77" stop-color="#000000" stop-opacity="0.239216"/><stop offset="1" stop-color="#000000" stop-opacity="0.239216"/></radialGradient><radialGradient cx="83127.5" cy="83127" r="117560" gradientUnits="userSpaceOnUse" spreadMethod="pad" id="fill10" gradientTransform="matrix(1.16731e-05 0 0 1.16731e-05 765.801 659.132)"><stop offset="0" stop-color="#767171" stop-opacity="0.25098"/><stop offset="0.08" stop-color="#767171" stop-opacity="0.25098"/><stop offset="0.64" stop-color="#181717" stop-opacity="0"/><stop offset="1" stop-color="#000000" stop-opacity="0"/></radialGradient><linearGradient x1="777.72" y1="649.089" x2="755.854" y2="670.954" gradientUnits="userSpaceOnUse" spreadMethod="reflect" id="fill11"><stop offset="0" stop-color="#5E6B78"/><stop offset="0.49" stop-color="#974762"/><stop offset="1" stop-color="#FF475D"/></linearGradient></defs><g clip-path="url(#clip0)" transform="translate(-696 -598)"><path d="M762.622 630.752C772.879 640.987 772.243 658.262 761.201 669.348 750.157 680.436 732.882 681.136 722.611 670.911 712.342 660.689 712.96 643.411 723.994 632.315L732.882 641.153 732.882 644.246 733.283 644.246 733.158 644.414C731.929 646.233 731.211 648.427 731.211 650.787 731.211 657.083 736.315 662.187 742.61 662.187 748.907 662.187 754.01 657.083 754.01 650.787 754.01 649.017 753.607 647.34 752.886 645.845L752.322 644.864 753.626 643.728 751.786 641.618Z" fill="url(#fill1)" fill-rule="evenodd"/><path d="M730.503 629.229C732.956 629.211 735.415 630.121 737.31 631.964 741.099 635.65 741.221 641.698 737.582 645.534L733.958 642.095 730.849 648.199 730.077 647.806 730.077 649.947 725.336 649.947 725.336 645.391 723.049 644.227 727.157 636.16 728.862 637.155 723.738 632.066C725.604 630.195 728.05 629.248 730.503 629.229Z" fill="url(#fill2)" fill-rule="evenodd"/><path d="M766.755 652.441C762.586 652.441 759.206 655.82 759.206 659.989 759.206 664.158 762.586 667.538 766.755 667.538 770.924 667.538 774.303 664.158 774.303 659.989 774.303 655.82 770.924 652.441 766.755 652.441ZM766.755 641.86C776.767 641.86 784.884 649.977 784.884 659.989 784.884 670.002 776.767 678.119 766.755 678.119 756.742 678.119 748.625 670.002 748.625 659.989 748.625 649.977 756.742 641.86 766.755 641.86Z" fill="url(#fill3)" fill-rule="evenodd"/><path d="M750.682 642.565C754.75 647.024 754.432 653.938 749.972 658.005 745.512 662.073 738.599 661.755 734.531 657.296 730.742 653.141 730.723 646.79 734.487 642.614L742.607 649.93Z" fill="url(#fill4)" fill-rule="evenodd"/><path d="M731.968 652.987C731.968 647.109 736.732 642.345 742.609 642.345 748.486 642.345 753.251 647.109 753.251 652.987 753.251 658.864 748.486 663.628 742.609 663.628 736.732 663.628 731.968 658.864 731.968 652.987Z" fill="url(#fill5)" fill-rule="evenodd"/><path d="M16.816 17.7823C15.1764 19.6064 12.8461 20.8097 10.2075 20.9669 4.93028 21.2814 0.380882 17.2946 0 12.0217L4.93986 11.6223 2.56976 5.25147 3.38112 4.946 1.7989 3.50219 4.99472 0 8.3605 3.07134 10.7618 2.16727 13.9512 10.6387 12.0678 11.2277 19.2805 10.8729C19.4045 13.5133 18.4556 15.9582 16.816 17.7823Z" fill="url(#fill6)" fill-rule="evenodd" transform="matrix(0.674057 -0.738679 -0.738679 -0.674057 756.381 653.637)"/><path d="M20.9919 10.1973C18.2159 10.1973 15.9655 12.4469 15.9655 15.222 15.9655 17.9971 18.2159 20.2467 20.9919 20.2467 23.7679 20.2467 26.0183 17.9971 26.0183 15.222 26.0183 12.4469 23.7679 10.1973 20.9919 10.1973ZM8.51641 0C6.78142 0 5.25176 0.878775 4.34846 2.21537L4.10077 2.6716 2.92787 4.36046C-0.642116 10.3859-0.999315 17.8782 2.14217 24.2863 5.28369 30.6943 11.4259 35.0025 18.3768 35.8735L20.5858 35.9897 20.585 36.0323 20.992 36.011 21.3988 36.0323 21.398 35.9897 23.607 35.8735C30.5579 35.0025 36.7003 30.6943 39.8416 24.2863 42.9833 17.8782 42.6259 10.3859 39.056 4.36046L37.8831 2.67162 37.6354 2.21539C36.732 0.878788 35.2024 1.55085e-05 33.4674 1.55085e-05 30.6914 1.55085e-05 28.4411 2.24968 28.4411 5.02477 28.4411 6.06543 28.7575 7.03219 29.2995 7.83416L29.5559 8.14489 29.5211 8.17297C32.1952 11.4867 32.7066 16.0492 30.8322 19.8724 29.1923 23.2176 25.9858 25.4666 22.3571 25.9213L20.992 25.9931 19.6267 25.9213C15.9981 25.4666 12.7915 23.2176 11.1516 19.8723 9.27733 16.0492 9.78864 11.4867 12.4627 8.17294L12.4279 8.14486 12.6844 7.83416C13.2263 7.03219 13.5428 6.06543 13.5428 5.02477 13.5428 2.24966 11.2924 0 8.51641 0Z" stroke="#DA7C42" stroke-width="0.259434" stroke-miterlimit="8" stroke-opacity="0.101961" fill="url(#fill7)" fill-rule="evenodd" transform="matrix(-1 0 0 1 763.601 634.906)"/><path d="M766.687 667.75 771.501 667.75 771.501 670.129 766.687 670.129ZM773.561 659.844 776.119 659.844 776.119 663.161 775.226 663.161 775.226 664.733 773.162 664.733 773.162 661.346 773.561 661.346ZM763.134 645.709 763.319 646.516C764.018 650.748 763.422 655.18 761.46 659.187 759.891 662.394 757.572 665.075 754.777 667.063L754.078 667.498 753.802 667.043C752.667 664.951 752.022 662.553 752.022 660.004 752.022 653.378 756.381 647.772 762.385 645.902Z" fill="url(#fill8)" fill-rule="evenodd"/><path d="M761.402 660.216C761.402 657.259 763.798 654.863 766.755 654.863 769.711 654.863 772.108 657.259 772.108 660.216 772.108 663.172 769.711 665.569 766.755 665.569 763.798 665.569 761.402 663.172 761.402 660.216Z" fill="url(#fill9)" fill-rule="evenodd"/><path d="M765.801 660.102C765.801 659.566 766.235 659.132 766.771 659.132 767.307 659.132 767.741 659.566 767.741 660.102 767.741 660.638 767.307 661.073 766.771 661.073 766.235 661.073 765.801 660.638 765.801 660.102Z" fill="url(#fill10)" fill-rule="evenodd"/><path d="M766.787 659.667C766.983 659.667 767.142 659.826 767.142 660.022 767.142 660.218 766.983 660.376 766.787 660.376 766.591 660.376 766.433 660.218 766.433 660.022 766.433 659.826 766.591 659.667 766.787 659.667ZM766.787 654.995C764.011 654.995 761.761 657.246 761.761 660.022 761.761 662.797 764.011 665.048 766.787 665.048 769.563 665.048 771.813 662.797 771.813 660.022 771.813 657.246 769.563 654.995 766.787 654.995ZM766.787 649.089C772.825 649.089 777.72 653.984 777.72 660.022 777.72 666.059 772.825 670.954 766.787 670.954 760.749 670.954 755.854 666.059 755.854 660.022 755.854 653.984 760.749 649.089 766.787 649.089Z" stroke="#974762" stroke-width="0.296496" stroke-miterlimit="8" stroke-opacity="0.101961" fill="url(#fill11)" fill-rule="evenodd"/></g></svg>